<?xml version="1.0" standalone="no"?>
<!DOCTYPE svg PUBLIC "-//W3C//DTD SVG 20010904//EN"
 "http://www.w3.org/TR/2001/REC-SVG-20010904/DTD/svg10.dtd">
<svg version="1.0" xmlns="http://www.w3.org/2000/svg"
 width="688.000000pt" height="624.000000pt" viewBox="0 0 688.000000 624.000000"
 preserveAspectRatio="xMidYMid meet">

<g transform="translate(0.000000,624.000000) scale(0.100000,-0.100000)"
fill="#ffffff" stroke="none">
<path d="M3318 5788 c-210 -292 -419 -579 -473 -653 -45 -62 -371 -511 -462
-636 -18 -26 -33 -51 -33 -55 0 -5 26 -24 58 -41 31 -18 76 -44 100 -58 23
-14 47 -25 51 -25 5 0 33 33 62 73 29 39 111 152 183 250 72 98 183 249 246
337 273 375 401 550 404 550 5 0 82 -105 232 -315 71 -99 157 -218 191 -265
35 -47 151 -206 258 -355 108 -148 200 -271 204 -273 11 -4 211 95 211 104 0
5 -79 116 -198 279 -32 44 -121 168 -198 275 -78 107 -190 263 -250 345 -61
83 -157 215 -214 295 -57 80 -137 189 -176 243 l-72 97 -124 -172z"/>
<path d="M3447 5425 c-7 -43 -80 -511 -147 -945 -22 -146 -48 -307 -56 -359
l-16 -94 66 -66 66 -67 -77 -19 c-262 -64 -467 -270 -529 -530 -10 -39 -18
-71 -20 -73 -1 -2 -32 25 -69 60 -57 54 -72 63 -99 60 -34 -4 -439 -65 -741
-112 -104 -16 -296 -46 -425 -65 -206 -32 -274 -45 -231 -45 6 0 101 -14 209
-31 108 -17 224 -35 257 -39 33 -5 249 -38 480 -73 231 -36 434 -67 451 -69
27 -3 41 6 99 60 37 35 68 62 69 60 1 -2 9 -34 19 -73 66 -268 284 -478 556
-536 l53 -11 -66 -67 -67 -68 16 -99 c14 -88 172 -1104 195 -1259 6 -33 10
-64 10 -69 0 -5 2 -7 5 -4 3 3 19 94 35 204 17 109 46 298 65 419 19 121 55
353 80 515 l45 294 -66 67 -66 66 72 17 c179 40 341 154 443 312 46 72 89 179
102 252 4 23 10 42 13 42 4 -1 36 -30 72 -65 53 -54 69 -64 90 -60 14 3 84 14
155 25 72 10 379 58 683 105 304 47 558 85 564 85 34 0 -10 11 -97 24 -55 8
-262 40 -460 71 -198 31 -434 67 -525 81 -91 13 -205 31 -255 39 l-90 14 -60
-57 c-33 -31 -63 -61 -67 -67 -10 -13 -11 -10 -31 70 -65 262 -274 470 -531
531 l-77 18 67 67 67 67 -12 64 c-6 34 -24 151 -41 258 -16 107 -37 238 -45
290 -8 52 -37 241 -65 420 -27 179 -53 343 -58 365 l-8 40 -7 -40z"/>
<path d="M3019 4648 c-129 -177 -251 -345 -271 -374 l-37 -52 45 -23 c39 -21
46 -22 54 -9 4 8 17 25 27 37 10 12 77 101 148 199 72 97 160 217 196 266 l66
89 7 91 c3 50 5 93 3 94 -2 2 -109 -141 -238 -318z"/>
<path d="M3658 4872 l4 -97 91 -125 c172 -236 339 -460 343 -460 14 0 84 42
84 50 0 6 -55 86 -122 178 -67 92 -182 250 -256 352 -74 102 -138 188 -141
192 -4 5 -5 -36 -3 -90z"/>
<path d="M2291 4332 c9 -27 385 -701 391 -702 3 0 23 24 44 52 54 76 130 155
197 204 l58 43 -38 24 c-21 13 -162 97 -313 187 -151 89 -290 172 -309 183
-19 11 -32 15 -30 9z"/>
<path d="M4593 4306 c-23 -13 -70 -39 -105 -58 -34 -19 -151 -84 -258 -145
-107 -60 -219 -122 -247 -138 -29 -15 -53 -31 -53 -34 0 -4 15 -15 33 -26 47
-27 181 -160 224 -222 20 -29 37 -53 39 -53 1 0 14 21 29 48 15 26 103 173
195 327 167 279 193 325 188 325 -2 0 -22 -11 -45 -24z"/>
<path d="M2152 4178 c-22 -29 -106 -145 -187 -258 -81 -113 -165 -227 -185
-255 -20 -27 -81 -110 -134 -183 l-97 -134 43 7 c24 3 89 15 146 26 57 10 114
19 128 19 13 0 34 11 47 26 23 27 168 224 323 441 l95 132 -63 115 c-35 64
-66 116 -70 116 -4 0 -25 -24 -46 -52z"/>
<path d="M4632 4109 l-64 -111 43 -61 c24 -34 49 -69 56 -77 20 -26 125 -169
227 -312 73 -102 104 -138 119 -139 12 0 83 -8 157 -18 74 -10 137 -16 139
-15 4 4 -3 13 -102 151 -236 328 -500 688 -505 690 -4 2 -35 -47 -70 -108z"/>
<path d="M2287 3643 c-75 -103 -135 -188 -133 -190 1 -1 30 2 64 8 l61 11 95
129 c53 72 96 135 96 142 0 7 -11 29 -24 49 l-22 37 -137 -186z"/>
<path d="M4448 3786 l-26 -44 68 -96 c37 -52 83 -115 101 -138 18 -24 34 -44
34 -46 3 -5 135 -19 135 -14 0 8 -273 382 -279 382 -3 0 -18 -20 -33 -44z"/>
<path d="M1209 2878 c-261 -362 -478 -662 -549 -758 -63 -85 -247 -341 -507
-702 l-35 -48 1570 0 1570 0 -5 38 c-2 20 -10 78 -16 127 l-12 90 -1307 3
c-720 1 -1308 4 -1308 7 0 3 37 56 83 118 46 61 133 180 192 262 60 83 170
233 245 335 74 102 142 195 150 207 8 12 82 113 163 224 81 111 147 202 145
203 -4 3 -251 36 -265 36 -6 0 -58 -64 -114 -142z"/>
<path d="M5435 3001 c-92 -13 -119 -20 -117 -31 2 -8 67 -101 145 -208 78
-107 149 -204 157 -215 12 -19 136 -190 397 -549 92 -129 184 -256 227 -315
l38 -53 -1301 0 c-716 0 -1301 -3 -1301 -7 0 -5 -7 -62 -15 -127 -8 -66 -13
-121 -12 -123 2 -2 704 -2 1560 -1 l1556 3 -20 25 c-23 29 -243 330 -365 500
-45 63 -182 252 -303 420 -122 168 -285 394 -364 502 -78 109 -146 197 -152
196 -5 0 -64 -8 -130 -17z"/>
<path d="M1698 2831 c-50 -69 -121 -166 -158 -216 -36 -49 -95 -130 -131 -180
-36 -49 -146 -200 -244 -335 -97 -135 -190 -262 -206 -282 -16 -20 -29 -39
-29 -42 0 -3 514 -6 1141 -6 l1142 0 -7 31 c-3 17 -6 38 -6 45 0 12 -166 14
-1050 14 -577 0 -1050 4 -1050 8 0 10 20 39 160 227 588 794 620 838 615 843
-2 3 -23 8 -45 12 l-41 7 -91 -126z"/>
<path d="M5060 2951 c-25 -3 -44 -10 -43 -16 2 -10 65 -98 273 -381 385 -523
500 -681 500 -688 0 -3 -467 -6 -1039 -6 l-1039 0 -6 -22 c-3 -13 -6 -33 -6
-45 l0 -23 1140 0 c627 0 1140 2 1140 5 0 2 -21 33 -47 68 -96 129 -570 780
-743 1020 -39 53 -74 96 -78 95 -4 0 -27 -4 -52 -7z"/>
<path d="M2683 2698 c-15 -19 -403 -677 -410 -695 -4 -10 6 -8 33 9 21 14 111
65 199 113 88 48 225 124 305 168 80 44 155 85 167 91 31 15 29 22 -17 51 -60
38 -182 158 -226 220 -20 30 -38 55 -39 55 -2 0 -7 -6 -12 -12z"/>
<path d="M4193 2677 c-19 -41 -171 -194 -233 -233 -33 -22 -59 -42 -57 -46 3
-11 717 -438 717 -430 0 4 -13 30 -28 57 -68 121 -338 603 -356 637 -25 44
-29 46 -43 15z"/>
</g>
</svg>
