<?xml version="1.0" standalone="no"?>
<!DOCTYPE svg PUBLIC "-//W3C//DTD SVG 20010904//EN"
 "http://www.w3.org/TR/2001/REC-SVG-20010904/DTD/svg10.dtd">
<svg version="1.0" xmlns="http://www.w3.org/2000/svg"
 width="688.000000pt" height="624.000000pt" viewBox="0 0 688.000000 624.000000"
 preserveAspectRatio="xMidYMid meet">

<g transform="translate(0.000000,624.000000) scale(0.100000,-0.100000)"
fill="#ffffff" stroke="none">
<path d="M4716 5301 c-3 -5 -1 -23 5 -40 37 -106 -92 -375 -258 -537 -60 -59
-67 -73 -64 -119 5 -61 59 -125 107 -125 9 0 65 31 123 69 136 89 400 231 428
231 7 0 -36 -74 -131 -223 -45 -70 -87 -137 -94 -150 -18 -32 -236 -357 -258
-385 -7 -9 -210 -64 -304 -82 -58 -12 -115 -23 -127 -26 -12 -2 -29 -11 -38
-20 -15 -15 -15 -18 1 -35 19 -21 86 -37 213 -49 51 -5 96 -11 99 -15 11 -11
-39 -92 -78 -129 -52 -48 -56 -67 -28 -118 34 -61 64 -69 134 -35 110 54 273
53 447 -3 150 -48 161 -65 105 -154 -80 -124 -158 -151 -300 -101 -125 44
-129 30 -20 -78 93 -94 163 -133 219 -122 99 18 211 105 279 217 57 94 86 99
189 33 88 -57 131 -67 157 -35 23 29 23 54 -3 110 -26 57 -61 95 -122 127 -28
16 -50 35 -53 49 -7 26 100 348 125 377 19 23 68 19 158 -13 63 -23 93 -22
127 3 66 48 -36 171 -159 192 -76 14 -82 22 -87 130 -5 84 -10 105 -39 163
-24 47 -47 75 -77 97 -40 28 -50 30 -125 30 -53 0 -101 -7 -135 -19 -29 -10
-56 -16 -59 -13 -10 10 105 163 193 256 75 81 85 96 82 124 -3 28 -11 36 -57
60 -30 15 -70 27 -89 27 -23 0 -109 -37 -269 -116 -129 -63 -238 -113 -241
-110 -2 3 18 52 46 108 85 173 122 302 102 362 -19 59 -105 119 -124 87z m607
-885 c11 -15 1 -181 -13 -229 -14 -47 -39 -63 -114 -72 l-59 -7 31 43 c37 50
40 77 11 136 -22 46 -61 73 -104 73 -25 0 -26 -1 -20 -45 6 -37 3 -52 -18 -87
-35 -59 -90 -113 -141 -137 -43 -21 -106 -28 -106 -12 0 19 160 250 183 266
21 13 69 30 237 80 47 15 99 10 113 -9z m-103 -445 c14 -4 26 -15 28 -24 4
-21 -48 -193 -83 -270 -14 -32 -32 -60 -41 -64 -9 -3 -93 4 -187 15 -95 12
-210 24 -257 27 -134 9 -150 13 -143 33 13 39 98 175 117 188 32 22 143 54
188 54 34 0 47 -7 79 -39 25 -24 39 -48 39 -64 0 -26 0 -25 -102 -63 -100 -35
-34 -75 100 -60 101 12 155 32 175 65 9 16 17 38 17 49 0 28 -41 75 -95 109
-25 15 -45 31 -45 35 0 14 168 21 210 9z"/>
<path d="M1960 5061 c-36 -10 -36 -37 -1 -68 80 -71 101 -96 112 -131 8 -24
15 -199 21 -501 9 -445 8 -465 -10 -483 -12 -12 -67 -28 -167 -49 -127 -26
-404 -100 -469 -125 -23 -9 -21 0 24 128 20 59 32 115 37 177 5 84 4 93 -20
143 -26 51 -89 128 -107 128 -14 0 -20 -29 -20 -100 0 -121 -52 -241 -146
-340 -113 -118 -110 -217 11 -342 88 -90 156 -105 251 -55 101 54 236 117 309
145 252 95 732 189 1066 209 l107 6 -2 -91 c-1 -88 0 -91 29 -122 46 -49 87
-64 129 -46 45 19 91 83 107 149 16 66 16 311 0 397 -32 171 -43 203 -89 252
-63 67 -138 100 -191 83 -30 -9 -26 -24 19 -71 36 -36 43 -50 57 -123 14 -68
15 -100 6 -178 -6 -55 -16 -100 -24 -108 -10 -10 -58 -15 -184 -19 -93 -2
-255 -12 -358 -21 -239 -22 -227 -29 -198 121 35 186 101 665 101 734 0 144
-96 251 -267 295 -61 16 -92 17 -133 6z"/>
<path d="M3915 5015 c-5 -2 -22 -6 -37 -9 -16 -4 -28 -13 -28 -22 0 -24 38
-73 70 -89 39 -20 47 -51 21 -79 -12 -12 -21 -30 -21 -39 0 -15 12 -17 83 -17
45 0 107 -6 136 -14 61 -16 99 -8 119 24 19 31 -8 82 -78 150 -48 45 -75 62
-126 79 -58 19 -112 25 -139 16z"/>
<path d="M3642 4392 c-19 -13 -5 -41 56 -105 52 -56 54 -59 49 -105 -3 -26
-13 -75 -23 -110 -17 -55 -17 -64 -4 -72 23 -15 26 -13 53 33 36 61 98 114
149 127 76 19 96 31 112 65 20 42 20 47 -4 78 -25 32 -116 63 -225 76 -44 6
-96 13 -115 16 -19 3 -41 2 -48 -3z"/>
<path d="M4033 3903 c-16 -21 -44 -63 -63 -93 -49 -79 -115 -163 -190 -242
-51 -55 -69 -68 -89 -66 -37 4 -48 52 -32 137 20 98 19 145 0 149 -19 3 -79
-110 -99 -188 -16 -58 -16 -157 -1 -203 15 -45 64 -89 125 -112 44 -17 48 -17
91 -1 27 11 56 33 75 56 28 35 170 363 222 513 31 89 11 115 -39 50z"/>
<path d="M1666 3074 c-3 -9 -6 -30 -6 -48 0 -88 -59 -243 -152 -396 -78 -130
-131 -200 -262 -348 -99 -112 -115 -139 -115 -192 0 -56 66 -118 111 -105 33
11 211 128 293 194 39 31 83 64 98 74 l29 19 -28 -49 c-50 -85 -115 -176 -185
-259 -60 -70 -99 -109 -196 -196 -32 -28 -31 -81 2 -113 13 -14 30 -25 38 -25
11 0 97 52 163 98 43 31 263 142 280 142 17 0 -73 -151 -132 -220 -67 -79 -78
-110 -38 -110 71 0 404 336 404 407 0 28 -22 55 -55 69 -56 23 -104 17 -184
-22 -71 -34 -141 -54 -141 -40 0 4 34 48 76 99 41 51 81 99 87 107 7 8 49 62
95 119 45 56 82 111 82 120 0 26 -68 90 -103 96 -45 9 -73 -5 -148 -68 -86
-74 -273 -186 -286 -173 -3 3 5 20 18 38 37 53 197 249 242 297 107 115 188
218 198 251 10 31 8 44 -9 82 -51 115 -155 205 -176 152z"/>
<path d="M2745 3050 c-311 -60 -567 -120 -602 -142 -76 -46 -14 -92 122 -91
57 0 103 8 160 26 187 59 434 94 576 82 89 -8 159 7 159 33 -2 61 -102 133
-184 131 -17 0 -121 -18 -231 -39z"/>
<path d="M2918 2789 c-32 -12 -34 -20 -12 -54 21 -33 13 -92 -31 -210 -18 -49
-36 -100 -40 -113 -15 -50 32 -122 100 -153 16 -8 36 -26 45 -41 17 -31 18
-29 -53 -133 -41 -59 -40 -80 2 -72 159 30 258 58 273 78 33 40 18 93 -44 156
-38 39 -86 63 -221 113 -25 9 -27 12 -16 32 7 13 38 51 69 84 123 133 138 249
38 297 -48 23 -79 27 -110 16z"/>
<path d="M4182 2762 c-38 -18 -37 -36 1 -40 l27 -3 0 -240 c0 -209 2 -239 15
-239 31 0 55 78 55 177 0 101 7 113 67 113 58 0 73 -32 82 -171 8 -114 19
-141 63 -152 18 -5 19 -3 12 26 -4 18 -8 86 -9 152 -2 129 -13 169 -57 199
-29 20 -90 20 -128 1 l-30 -16 0 94 c0 121 -18 139 -98 99z"/>
<path d="M3803 2735 c-41 -17 -73 -69 -73 -116 0 -48 33 -82 113 -118 85 -38
137 -84 137 -121 0 -41 -41 -70 -97 -70 -38 0 -50 5 -76 33 -18 18 -37 41 -44
52 -12 20 -12 20 -28 0 -30 -37 7 -103 72 -131 42 -18 127 -18 162 1 49 25 81
72 81 118 0 72 -45 118 -160 166 -60 25 -100 57 -100 78 0 8 11 25 25 38 31
32 96 34 140 5 38 -25 65 -26 65 -2 0 20 -31 52 -67 71 -30 15 -111 13 -150
-4z"/>
<path d="M2582 2722 c-31 -5 -37 -25 -16 -56 13 -21 15 -40 11 -89 -8 -97 -35
-163 -89 -222 -26 -29 -48 -60 -48 -69 0 -8 17 -24 38 -35 53 -27 60 -39 78
-122 16 -78 44 -133 74 -149 54 -29 95 10 84 78 -5 30 1 59 22 120 16 44 25
84 21 88 -4 5 -22 2 -40 -5 -56 -23 -86 -25 -107 -6 -33 30 -25 66 31 141 62
83 109 178 109 219 0 68 -84 122 -168 107z"/>
<path d="M2221 2641 c-11 -7 -10 -17 8 -55 19 -38 21 -51 12 -78 -6 -18 -17
-58 -26 -89 -16 -61 -58 -126 -105 -160 -16 -13 -30 -28 -30 -35 0 -7 19 -23
43 -36 53 -29 87 -92 87 -159 0 -58 11 -89 47 -134 29 -37 68 -46 91 -23 7 7
12 34 12 61 0 27 8 87 17 133 20 97 13 117 -30 84 -33 -26 -55 -20 -84 23 -35
51 -27 107 22 152 19 17 81 99 95 124 45 85 32 138 -43 175 -52 27 -92 32
-116 17z"/>
<path d="M4720 2602 c-19 -9 -36 -25 -38 -35 -4 -17 2 -18 75 -12 96 9 121 -5
130 -74 6 -41 5 -44 -13 -36 -33 15 -124 17 -155 5 -63 -27 -87 -96 -54 -159
26 -51 140 -69 200 -32 30 18 30 18 52 -6 12 -12 27 -23 33 -23 6 0 10 48 10
138 0 157 -15 209 -69 236 -40 21 -127 20 -171 -2z m154 -198 c10 -4 16 -18
16 -38 0 -25 -6 -35 -24 -44 -41 -18 -90 -24 -119 -13 -22 9 -27 17 -27 44 0
18 5 38 12 45 12 12 114 17 142 6z"/>
<path d="M5110 2571 c0 -10 7 -24 15 -31 12 -10 15 -43 15 -177 0 -176 6 -194
42 -122 14 25 18 58 18 130 0 105 6 119 55 119 57 0 66 -15 79 -139 13 -116
20 -133 65 -146 22 -7 23 -5 16 16 -4 13 -10 78 -14 144 -7 124 -16 153 -53
179 -26 18 -90 21 -119 5 -16 -8 -23 -7 -32 5 -11 14 -58 36 -78 36 -5 0 -9
-8 -9 -19z"/>
<path d="M3732 2195 c-39 -17 -38 -39 1 -43 l27 -3 2 -236 c3 -249 9 -278 44
-211 12 22 19 66 22 133 2 55 9 106 14 113 14 16 79 16 102 -1 22 -16 35 -79
36 -178 0 -62 4 -81 21 -103 26 -34 65 -36 54 -3 -4 12 -9 79 -11 150 -4 135
-14 172 -56 201 -29 20 -107 21 -136 0 l-22 -15 0 90 c0 49 -3 96 -6 105 -8
20 -48 20 -92 1z"/>
<path d="M4677 2146 c-10 -24 3 -46 30 -52 33 -9 62 19 47 44 -15 23 -69 28
-77 8z"/>
<path d="M4297 2046 c-45 -16 -79 -45 -71 -58 4 -5 33 -6 70 -3 35 4 75 4 89
1 28 -7 55 -52 55 -91 0 -23 -2 -25 -22 -14 -30 16 -117 16 -155 0 -43 -17
-63 -51 -63 -104 0 -35 6 -49 30 -72 40 -38 126 -46 181 -17 l36 18 22 -24
c38 -42 43 -26 42 118 -2 154 -18 208 -69 234 -45 23 -102 28 -145 12z m129
-213 c23 -8 17 -61 -7 -74 -38 -20 -80 -28 -111 -22 -54 11 -58 81 -5 103 21
9 93 5 123 -7z"/>
<path d="M4678 2039 c-34 -13 -36 -37 -4 -45 24 -6 24 -7 27 -159 4 -171 16
-208 44 -141 12 29 15 70 13 194 l-3 157 -25 2 c-14 1 -37 -3 -52 -8z"/>
<path d="M2700 1846 c-265 -56 -510 -134 -510 -164 0 -14 43 -50 73 -61 41
-16 87 -13 158 8 35 11 81 23 102 26 l37 7 0 -55 c0 -60 -29 -166 -66 -238
-34 -68 -72 -95 -161 -115 -43 -9 -115 -30 -160 -45 -100 -35 -123 -36 -161
-4 -36 30 -58 32 -72 4 -25 -46 25 -131 101 -170 65 -32 134 -26 221 21 179
96 333 133 558 132 174 0 249 -13 363 -63 80 -36 116 -32 150 13 26 35 16 72
-33 119 -62 59 -133 89 -211 89 -73 0 -446 -28 -466 -35 -33 -11 -20 22 25 68
93 96 126 201 87 277 -15 28 -14 30 7 34 13 3 82 7 155 8 116 3 135 6 160 24
38 28 39 47 6 79 -83 78 -151 86 -363 41z"/>
<path d="M4032 1588 c-20 -20 -14 -48 13 -60 45 -20 79 38 36 62 -25 13 -34
13 -49 -2z"/>
<path d="M3765 1573 c-20 -19 -19 -26 4 -47 22 -20 56 -14 65 11 13 33 -43 63
-69 36z"/>
<path d="M1879 1545 c-192 -139 -457 -313 -543 -356 -55 -28 -91 -39 -122 -39
-68 0 -111 -55 -63 -81 59 -31 138 -50 212 -50 111 -1 160 26 285 155 174 180
321 364 307 385 -10 18 -40 13 -76 -14z"/>
<path d="M4943 1474 c-18 -9 -33 -20 -33 -25 0 -5 -24 -6 -53 -3 -117 14 -198
-86 -132 -164 l24 -29 -24 -23 c-31 -29 -33 -75 -5 -90 11 -6 59 -19 107 -30
99 -22 132 -44 113 -79 -27 -51 -160 -56 -192 -7 -4 6 -8 29 -8 51 l-1 40 -24
-28 c-45 -51 -29 -109 42 -146 35 -18 143 -14 183 7 44 23 74 80 65 122 -11
52 -53 77 -155 91 -50 6 -93 16 -96 21 -11 18 28 48 63 48 19 0 51 9 72 19 55
29 73 81 47 142 -5 11 3 20 29 32 26 13 35 23 35 42 0 29 -12 31 -57 9z m-68
-104 c25 -27 10 -71 -27 -84 -22 -8 -33 -5 -62 18 -40 30 -43 41 -19 68 23 25
84 24 108 -2z"/>
<path d="M4021 1471 c-36 -10 -36 -28 -2 -46 l31 -16 0 -147 c0 -164 8 -194
36 -141 14 27 19 64 22 182 5 180 -1 192 -87 168z"/>
<path d="M3740 1453 c0 -11 11 -30 25 -43 24 -22 25 -29 25 -136 0 -137 -14
-210 -42 -225 -13 -7 -41 -9 -71 -5 -43 6 -49 5 -43 -9 3 -9 6 -18 6 -21 0
-11 63 -34 93 -34 88 0 117 73 117 297 0 148 -1 153 -23 168 -13 8 -37 18 -55
21 -27 6 -32 4 -32 -13z"/>
<path d="M4244 1445 c-4 -9 3 -26 15 -39 20 -21 21 -33 21 -179 0 -96 4 -157
10 -157 5 0 18 12 27 27 14 20 19 55 23 137 5 110 5 111 33 120 21 8 35 7 55
-5 31 -17 39 -44 48 -162 6 -85 24 -117 65 -117 16 0 19 4 13 18 -4 9 -10 71
-13 137 -4 66 -10 127 -15 135 -36 61 -89 81 -148 57 -29 -12 -36 -12 -44 -1
-5 7 -26 21 -47 29 -34 14 -38 14 -43 0z"/>
</g>
</svg>
