<?xml version="1.0" standalone="no"?>
<!DOCTYPE svg PUBLIC "-//W3C//DTD SVG 20010904//EN"
 "http://www.w3.org/TR/2001/REC-SVG-20010904/DTD/svg10.dtd">
<svg version="1.0" xmlns="http://www.w3.org/2000/svg"
 width="688.000000pt" height="624.000000pt" viewBox="0 0 688.000000 624.000000"
 preserveAspectRatio="xMidYMid meet">

<g transform="translate(0.000000,624.000000) scale(0.100000,-0.100000)"
fill="#ffffff" stroke="none">
<path d="M1026 4508 c5 -7 44 -58 89 -113 45 -55 157 -194 250 -310 93 -115
197 -245 233 -287 l64 -78 379 0 c208 0 379 -2 379 -4 0 -5 -650 -1158 -730
-1296 -139 -240 -261 -464 -257 -474 7 -15 510 -627 513 -623 2 3 390 663 704
1197 485 825 1137 1931 1157 1963 l23 37 -1405 0 c-1122 0 -1405 -3 -1399 -12z"/>
<path d="M4192 4438 c-46 -77 -206 -348 -442 -748 -53 -91 -156 -264 -227
-385 -72 -121 -206 -348 -298 -505 -92 -157 -242 -411 -333 -564 -138 -235
-163 -282 -153 -297 25 -42 476 -589 484 -589 3 0 31 44 62 97 110 186 1014
1701 1208 2026 l160 267 204 0 c111 0 203 -3 203 -8 0 -4 -6 -16 -14 -27 -7
-11 -75 -128 -151 -260 -248 -433 -406 -707 -503 -875 -279 -482 -362 -630
-362 -639 0 -11 496 -594 509 -599 8 -3 29 33 271 458 139 244 121 212 267
470 61 107 211 371 333 585 123 215 285 500 361 634 l139 245 0 398 0 398
-834 0 -835 0 -49 -82z"/>
</g>
</svg>
