<?xml version="1.0" standalone="no"?>
<!DOCTYPE svg PUBLIC "-//W3C//DTD SVG 20010904//EN"
 "http://www.w3.org/TR/2001/REC-SVG-20010904/DTD/svg10.dtd">
<svg version="1.0" xmlns="http://www.w3.org/2000/svg"
 width="688.000000pt" height="624.000000pt" viewBox="0 0 688.000000 624.000000"
 preserveAspectRatio="xMidYMid meet">

<g transform="translate(0.000000,624.000000) scale(0.100000,-0.100000)"
fill="#ffffff" stroke="none">
<path d="M4060 5404 c-14 -3 -40 -7 -58 -10 l-32 -5 24 -32 c71 -93 112 -245
88 -327 l-10 -35 -1 51 c-1 75 -49 163 -136 251 l-72 72 -84 -25 c-46 -14
-124 -44 -172 -67 l-88 -40 65 -66 c78 -79 123 -167 131 -256 l5 -60 -16 49
c-30 95 -88 159 -217 241 l-59 37 -56 -37 c-80 -54 -229 -202 -296 -294 -32
-44 -80 -125 -106 -179 -45 -90 -52 -99 -87 -110 -20 -6 -39 -10 -41 -8 -9 10
32 139 68 211 94 190 323 405 557 526 77 39 77 40 34 34 -101 -13 -510 -192
-609 -266 -116 -87 -216 -198 -320 -355 -62 -92 -148 -255 -206 -388 -17 -39
-42 -72 -73 -99 -232 -199 -523 -540 -594 -697 -38 -82 -84 -213 -93 -264 -9
-49 -27 -77 -203 -317 -123 -169 -183 -265 -171 -273 11 -8 162 -76 168 -76
17 0 79 138 86 190 11 89 20 103 29 45 10 -60 -6 -141 -39 -208 l-24 -48 27
-11 c14 -5 67 -19 116 -30 177 -39 371 -13 710 96 341 109 465 107 525 -10 22
-42 25 -64 29 -171 4 -148 -6 -198 -94 -472 -106 -328 -142 -537 -132 -751 11
-239 101 -425 293 -610 79 -76 241 -197 250 -187 2 2 -2 40 -8 84 -37 251 98
482 373 639 58 33 262 124 278 124 4 0 4 -30 0 -67 -5 -38 -8 -124 -8 -192
l-1 -125 30 47 c66 104 230 233 555 436 55 35 112 75 128 89 l27 26 0 -38 c0
-55 -52 -171 -115 -254 -30 -40 -49 -70 -42 -66 62 37 314 223 432 320 200
163 259 244 291 396 16 71 14 226 -2 331 -7 44 3 47 46 11 59 -50 75 -96 75
-216 0 -59 3 -104 6 -100 4 4 29 50 57 102 254 484 271 1109 39 1450 -97 143
-243 251 -412 306 l-70 23 65 1 c131 0 258 -53 370 -157 34 -31 60 -49 60 -41
0 63 -99 257 -180 356 -105 125 -308 264 -463 316 l-47 16 -218 -101 c-247
-115 -361 -157 -447 -165 l-60 -5 95 39 c378 156 772 423 890 600 42 64 40 73
-17 66 -439 -51 -818 -145 -1103 -273 -81 -37 -100 -42 -137 -36 -24 3 -43 10
-43 15 0 5 42 43 93 84 393 315 811 437 1167 340 57 -16 244 -91 315 -126 137
-69 284 -204 342 -314 38 -72 70 -180 76 -257 3 -32 7 -61 10 -63 2 -3 15 19
28 48 19 43 24 75 27 169 9 257 -79 434 -336 680 -102 97 -118 109 -127 93 -5
-10 -24 -34 -42 -53 l-32 -36 24 49 c14 27 25 58 25 68 0 22 -101 98 -200 152
-71 38 -90 39 -90 7 0 -36 -30 -117 -55 -146 l-25 -30 16 39 c15 38 21 149 9
185 -8 25 -79 55 -220 91 -163 42 -155 45 -148 -43 6 -83 -12 -164 -54 -235
-29 -50 -43 -50 -17 0 27 49 23 164 -7 253 l-24 70 -145 1 c-80 1 -156 0 -170
-2z"/>
</g>
</svg>
