<?xml version="1.0" standalone="no"?>
<!DOCTYPE svg PUBLIC "-//W3C//DTD SVG 20010904//EN"
 "http://www.w3.org/TR/2001/REC-SVG-20010904/DTD/svg10.dtd">
<svg version="1.0" xmlns="http://www.w3.org/2000/svg"
 width="688.000000pt" height="624.000000pt" viewBox="0 0 688.000000 624.000000"
 preserveAspectRatio="xMidYMid meet">

<g transform="translate(0.000000,624.000000) scale(0.100000,-0.100000)"
fill="#ffffff" stroke="none">
<path d="M3434 5792 l-221 -2 -16 -43 c-9 -23 -56 -161 -105 -307 -97 -286
-130 -381 -135 -386 -1 -2 -54 -19 -117 -38 -137 -41 -248 -88 -389 -162
l-103 -55 -345 171 c-189 93 -347 170 -351 170 -13 0 -312 -305 -312 -317 0
-7 76 -166 170 -354 l170 -341 -36 -61 c-66 -113 -154 -322 -194 -462 l-26
-90 -365 -122 c-200 -67 -365 -122 -366 -123 -2 0 -3 -102 -3 -227 l0 -228
367 -126 366 -125 47 -140 c56 -166 95 -258 163 -378 l50 -89 -174 -349 -174
-348 162 -162 162 -162 349 177 349 176 34 -23 c102 -70 292 -152 451 -197
l117 -32 48 -141 c25 -78 81 -244 123 -371 l77 -230 230 -3 230 -2 106 322
c58 178 111 342 118 366 7 23 17 46 23 51 6 5 54 21 106 36 159 45 375 138
462 199 12 9 31 16 41 16 9 0 171 -78 358 -173 l340 -172 158 165 158 165
-168 337 c-93 186 -169 345 -169 354 0 8 22 55 48 103 67 121 119 245 163 386
l37 120 353 120 c195 66 361 123 370 127 14 5 16 33 15 230 l-1 223 -50 17
c-27 9 -194 66 -370 125 l-319 109 -27 95 c-38 130 -110 306 -173 420 l-53 97
169 341 c92 187 168 347 168 354 0 7 -70 82 -155 167 l-155 155 -346 -173
-345 -173 -167 84 c-148 74 -273 122 -409 157 l-42 10 -121 370 c-66 203 -124
370 -128 372 -4 2 -107 2 -228 0z m291 -928 c418 -72 763 -249 1035 -530 161
-167 239 -274 333 -459 334 -656 247 -1455 -218 -2015 -298 -358 -682 -577
-1150 -656 -135 -23 -423 -23 -560 0 -472 80 -847 293 -1151 656 -205 244
-335 532 -395 875 -32 182 -30 442 5 630 56 292 163 540 335 775 88 121 310
335 431 417 215 145 467 249 716 297 108 20 161 24 329 25 140 1 227 -4 290
-15z"/>
<path d="M3179 4805 c-544 -88 -987 -388 -1274 -860 -304 -501 -331 -1156 -70
-1691 140 -289 351 -531 615 -707 888 -592 2086 -285 2583 664 95 181 159 384
187 595 18 134 8 451 -19 579 -134 649 -610 1174 -1236 1362 -180 54 -258 65
-485 69 -152 2 -240 -1 -301 -11z m571 -219 c335 -72 594 -215 824 -457 419
-441 547 -1089 325 -1654 -50 -127 -123 -260 -142 -259 -12 1 -110 78 -295
232 -51 43 -58 62 -23 62 9 0 26 6 37 14 19 14 19 15 -3 43 -86 107 -114 154
-123 204 -6 30 -24 103 -40 164 -16 60 -28 111 -26 113 2 1 11 -16 20 -39 l17
-41 42 35 c96 79 131 152 131 272 -1 172 -125 302 -300 313 -88 6 -156 -16
-216 -67 -40 -34 -40 -34 -67 -17 -221 144 -610 158 -864 30 l-87 -44 -45 34
c-162 124 -395 67 -485 -120 -30 -61 -37 -169 -16 -235 23 -69 65 -129 118
-168 l43 -32 22 48 c13 27 21 37 18 23 -5 -22 -49 -197 -76 -302 -5 -21 -36
-71 -69 -113 -33 -41 -60 -79 -60 -85 0 -6 19 -19 41 -28 l41 -18 -157 -129
c-87 -72 -169 -140 -184 -152 -14 -13 -29 -23 -33 -23 -24 0 -129 212 -178
359 -61 182 -75 274 -74 506 0 168 4 216 22 301 147 677 682 1170 1362 1254
128 15 369 4 500 -24z m-70 -1076 c41 -12 92 -31 113 -43 l38 -21 -93 -32
c-51 -17 -108 -39 -127 -49 l-35 -17 -29 36 c-16 20 -33 36 -38 36 -11 0 -35
-37 -44 -68 -6 -21 -5 -22 14 -11 18 12 25 9 68 -27 73 -61 144 -209 179 -374
14 -67 19 -170 8 -170 -4 0 -34 17 -68 38 -34 21 -89 54 -123 73 -66 35 -67
37 -63 109 2 54 6 59 23 36 12 -16 16 -13 50 36 41 59 48 109 20 140 -14 15
-32 18 -123 18 -118 0 -134 -7 -146 -66 -4 -23 3 -40 37 -88 37 -51 44 -57 54
-42 20 27 25 19 25 -43 0 -65 1 -64 -82 -109 -32 -17 -82 -47 -113 -66 -30
-20 -58 -36 -60 -36 -3 0 -5 28 -5 63 0 72 36 214 82 325 47 112 154 221 179
181 4 -7 11 -11 14 -7 8 8 -32 88 -44 88 -5 0 -22 -16 -38 -36 l-28 -35 -54
25 c-30 13 -84 32 -120 42 -36 9 -70 20 -74 24 -15 13 97 60 189 81 116 25
303 20 414 -11z m-881 -49 c47 -25 68 -48 54 -62 -7 -7 -26 -3 -59 15 -27 13
-68 30 -92 37 -29 8 -38 15 -30 21 23 14 88 9 127 -11z m1429 10 c10 -6 4 -10
-21 -15 -20 -4 -62 -20 -94 -36 -66 -34 -73 -35 -73 -17 0 48 140 99 188 68z
m-1123 -164 c33 -8 72 -18 88 -21 36 -8 34 -31 -7 -72 -41 -41 -97 -47 -139
-14 -46 37 -61 138 -19 126 9 -3 44 -11 77 -19z m785 -12 c0 -108 -102 -155
-176 -81 -31 31 -45 65 -26 66 4 1 48 11 97 25 50 13 93 24 98 24 4 1 7 -15 7
-34z m-392 -409 c36 -18 185 -121 221 -152 3 -3 -8 -18 -24 -34 -65 -68 -260
-93 -396 -51 -57 18 -120 60 -119 80 1 15 244 179 268 181 1 0 24 -11 50 -24z
m-978 -879 c19 -9 26 -22 28 -50 3 -32 0 -38 -23 -47 -29 -11 -29 -13 19 -67
l19 -23 -36 0 c-20 0 -37 5 -37 11 0 22 -42 69 -61 69 -10 0 -19 7 -19 15 0
11 11 15 39 15 46 0 70 22 51 45 -8 10 -30 15 -62 15 l-49 0 3 -85 c3 -85 3
-85 -22 -85 -25 0 -25 0 -25 100 l0 100 75 0 c41 0 86 -6 100 -13z m270 -4 c0
-16 -9 -18 -70 -15 l-70 4 0 -72 0 -72 75 4 c69 3 75 2 75 -17 0 -19 -6 -20
-100 -17 l-100 3 0 100 0 99 95 0 c84 0 95 -2 95 -17z m234 -12 c33 -31 41
-71 22 -115 -17 -42 -51 -58 -110 -54 -55 4 -61 28 -7 28 49 0 81 27 81 68 0
40 -31 65 -83 66 l-42 1 -3 -82 c-3 -78 -4 -83 -25 -83 -21 0 -22 3 -22 101
l0 101 82 -4 c69 -4 87 -8 107 -27z m200 -31 c10 -33 21 -60 25 -60 8 0 41 81
41 103 0 25 65 25 67 0 1 -10 10 -38 21 -63 l19 -45 18 40 c9 22 18 50 18 62
2 18 8 23 31 23 23 0 27 -3 22 -17 -54 -147 -72 -183 -91 -183 -16 0 -25 14
-44 66 -13 36 -27 62 -31 57 -14 -14 -49 -110 -43 -117 4 -3 -8 -6 -25 -6 -24
0 -32 5 -32 18 0 9 -16 53 -35 97 -19 44 -35 81 -35 82 0 2 12 3 28 3 24 0 29
-6 46 -60z m351 -40 c0 -100 0 -100 -25 -100 l-25 0 3 100 c3 96 4 100 25 100
22 0 23 -3 22 -100z m100 0 c0 -100 0 -100 -25 -100 l-25 0 3 100 c3 95 4 100
25 100 21 0 22 -4 22 -100z m173 0 c0 -99 0 -100 -23 -100 -31 0 -128 101
-136 141 -4 16 -4 29 -1 29 4 0 30 -24 60 -52 l54 -53 -4 68 c-3 67 -3 67 23
67 l27 0 0 -100z m232 79 c0 -18 -5 -20 -37 -17 l-38 3 0 -83 c0 -81 0 -82
-25 -82 -25 0 -25 1 -25 82 l0 83 -35 0 c-35 0 -53 12 -44 27 3 4 50 8 105 8
94 0 99 -1 99 -21z m220 3 c0 -15 -9 -18 -70 -18 -38 0 -72 -3 -75 -6 -4 -3
-3 -33 1 -67 l7 -61 72 0 c57 0 72 -3 72 -15 0 -12 -18 -15 -99 -15 l-98 0 0
100 0 100 95 0 c85 0 95 -2 95 -18z m220 5 c18 -9 26 -22 28 -48 3 -30 -1 -37
-24 -47 -28 -13 -28 -15 20 -69 l19 -23 -29 0 c-22 0 -35 9 -57 40 -16 23 -36
40 -48 40 -10 0 -19 7 -19 15 0 11 11 15 38 15 50 0 71 14 56 37 -8 13 -24 18
-60 18 l-49 0 0 -83 c0 -81 0 -82 -25 -82 -25 0 -25 0 -25 100 l0 100 75 0
c41 0 86 -6 100 -13z m-1772 -101 c-10 -9 -78 8 -78 19 0 9 15 15 38 17 29 2
38 -1 40 -15 2 -10 2 -20 0 -21z m1512 13 c0 -15 -4 -19 -16 -15 -9 3 -29 6
-45 6 -19 0 -29 5 -29 15 0 11 12 15 45 15 39 0 45 -3 45 -21z"/>
<path d="M3442 4378 c-7 -7 -12 -31 -12 -55 l0 -43 -25 16 c-27 18 -45 12 -45
-15 0 -10 15 -24 35 -34 41 -20 47 -47 10 -47 -15 0 -31 -10 -41 -25 -24 -36
-38 -26 -44 31 -4 36 -10 50 -22 52 -14 3 -18 -3 -18 -27 0 -36 1 -36 -44 -15
-66 32 -93 -11 -30 -48 34 -20 35 -22 18 -35 -10 -7 -21 -13 -26 -13 -4 0 -8
-7 -8 -15 0 -26 30 -29 69 -7 46 26 67 17 50 -22 -10 -20 -10 -29 -1 -38 7 -7
12 -18 12 -26 0 -16 -23 -13 -77 9 -27 11 -35 11 -45 0 -11 -10 -8 -17 15 -35
l29 -23 -36 -21 c-61 -36 -38 -79 25 -48 43 21 49 20 49 -8 0 -14 4 -27 8 -30
17 -10 31 11 34 54 3 49 31 69 43 31 4 -15 15 -21 36 -21 41 0 38 -26 -6 -52
-53 -31 -39 -66 17 -43 14 6 17 -1 20 -42 3 -40 6 -48 23 -48 17 0 20 8 23 48
3 45 13 59 27 37 3 -5 15 -10 26 -10 32 0 23 36 -16 59 -43 25 -47 51 -6 51
18 0 34 8 43 22 21 31 44 11 46 -37 1 -20 4 -40 7 -46 10 -15 25 0 25 27 0 28
12 30 50 8 15 -10 35 -14 44 -11 28 11 18 42 -21 64 l-37 21 27 13 c15 7 27
18 27 26 0 23 -29 26 -70 8 -47 -21 -67 -13 -47 18 10 16 11 28 4 45 -17 37 4
47 47 21 37 -21 66 -20 66 3 0 8 -12 20 -26 29 l-26 16 36 21 c22 13 36 29 36
41 0 28 -20 31 -62 10 -48 -24 -48 -24 -48 11 0 20 -5 30 -15 30 -11 0 -15
-12 -15 -49 0 -37 -4 -50 -17 -55 -16 -7 -43 16 -43 36 0 4 -13 8 -30 8 -44 0
-37 23 15 48 48 23 54 32 30 52 -12 10 -20 9 -40 -4 -13 -9 -27 -16 -30 -16
-3 0 -5 20 -5 44 0 48 -18 74 -38 54z"/>
</g>
</svg>
