<?xml version="1.0" standalone="no"?>
<!DOCTYPE svg PUBLIC "-//W3C//DTD SVG 20010904//EN"
 "http://www.w3.org/TR/2001/REC-SVG-20010904/DTD/svg10.dtd">
<svg version="1.0" xmlns="http://www.w3.org/2000/svg"
 width="688.000000pt" height="624.000000pt" viewBox="0 0 688.000000 624.000000"
 preserveAspectRatio="xMidYMid meet">

<g transform="translate(0.000000,624.000000) scale(0.100000,-0.100000)"
fill="#ffffff" stroke="none">
<path d="M2260 5488 c-353 -59 -580 -157 -820 -354 -257 -211 -446 -509 -530
-832 -6 -24 -14 -50 -17 -58 -5 -12 18 -14 156 -12 l162 3 28 81 c114 326 367
607 666 739 33 14 69 30 80 36 11 5 58 20 103 34 244 72 578 58 807 -35 44
-18 60 -23 68 -22 4 1 7 -2 7 -7 0 -5 10 -11 23 -15 35 -8 187 -107 265 -171
122 -100 240 -249 316 -399 25 -50 46 -98 46 -108 0 -17 -13 -18 -190 -18
-124 0 -190 4 -190 10 0 15 86 187 110 220 11 16 20 35 20 43 0 14 -204 217
-219 217 -23 0 -169 -270 -211 -390 -12 -36 -27 -73 -32 -82 -8 -17 -46 -18
-583 -18 -316 0 -575 -2 -575 -5 0 -2 45 -75 100 -162 55 -87 137 -219 183
-293 197 -316 292 -465 300 -471 5 -4 -20 -40 -56 -80 -136 -156 -243 -344
-306 -536 -52 -161 -59 -195 -78 -357 -59 -516 166 -1055 583 -1393 72 -59
207 -145 299 -191 72 -36 279 -112 305 -112 6 0 10 54 10 155 0 139 -2 156
-17 161 -52 17 -154 62 -196 86 -26 15 -50 28 -54 28 -6 0 -117 77 -158 110
-66 53 -174 170 -227 246 -147 209 -222 424 -234 677 -12 242 35 456 148 667
44 82 114 185 146 213 19 18 42 16 42 -3 0 -4 32 -59 72 -122 39 -62 96 -151
125 -197 31 -50 50 -88 44 -94 -22 -22 -177 -46 -314 -48 -107 -2 -109 -3
-119 -28 -25 -63 -50 -171 -51 -221 l-2 -55 185 1 c191 1 261 10 415 56 l69
20 16 -20 c8 -11 31 -47 51 -79 20 -32 79 -125 131 -208 148 -233 224 -355
265 -422 21 -35 41 -63 45 -63 3 0 37 51 75 113 38 61 107 171 152 242 45 72
88 139 94 149 149 239 165 261 194 260 15 -1 39 -4 53 -7 170 -41 176 -42 390
-42 217 1 259 5 422 49 159 43 322 118 463 212 164 110 329 277 444 449 82
123 211 419 211 485 0 10 5 22 10 25 29 18 -17 25 -164 25 l-162 0 -23 -72
c-62 -193 -201 -406 -356 -543 -69 -62 -168 -135 -220 -162 -137 -71 -212
-101 -350 -138 -119 -32 -524 -30 -558 4 -4 4 15 44 42 87 28 43 90 142 138
218 49 77 93 141 100 143 16 6 113 -134 173 -249 28 -54 56 -98 63 -98 14 1
107 24 152 38 51 16 127 54 131 67 5 13 -46 128 -97 215 -55 96 -117 183 -179
252 -33 36 -60 72 -60 78 0 6 13 30 28 53 16 23 40 60 54 82 14 22 47 74 73
115 27 41 72 113 100 160 29 47 112 180 185 295 73 116 135 216 137 222 4 10
-124 13 -603 15 l-608 3 -29 75 c-80 215 -177 380 -310 530 -255 289 -587 467
-980 524 -116 17 -308 19 -397 4z m585 -1581 l1 -147 -104 -55 c-57 -31 -119
-67 -137 -81 l-34 -25 -24 38 c-81 126 -249 396 -254 409 -5 12 32 14 273 12
l279 -3 0 -148z m853 141 c7 -7 12 -43 12 -93 l0 -82 -177 4 c-120 3 -210 0
-276 -10 -85 -12 -100 -12 -104 1 -7 17 3 167 12 181 9 16 517 15 533 -1z
m947 1 c3 -4 -10 -32 -29 -62 -20 -31 -36 -58 -36 -61 0 -3 -13 -25 -29 -48
-15 -24 -59 -92 -96 -153 -38 -60 -71 -114 -75 -118 -4 -5 -37 11 -73 36 -37
24 -113 66 -169 92 l-103 48 1 131 c1 72 2 135 3 139 1 9 596 5 606 -4z
m-1041 -505 c56 -8 57 -15 17 -117 -56 -141 -163 -317 -192 -317 -10 0 -94
128 -134 204 -43 83 -87 198 -77 208 20 20 285 35 386 22z m464 -144 c42 -22
90 -50 106 -63 l29 -23 -52 -82 c-28 -45 -51 -84 -51 -87 0 -2 -13 -24 -29
-47 -16 -24 -60 -92 -97 -153 -37 -60 -78 -127 -91 -148 l-23 -37 -43 21 c-23
12 -68 39 -100 61 l-58 39 31 35 c93 107 237 377 267 502 7 30 22 28 111 -18z
m-1118 -62 c53 -137 133 -277 236 -418 l25 -34 -23 -18 c-43 -34 -107 -70
-116 -64 -6 3 -35 47 -66 98 -31 51 -102 164 -156 251 -55 87 -100 162 -100
167 0 10 139 98 156 99 6 1 26 -36 44 -81z m613 -759 c67 -44 123 -84 125 -89
3 -8 -19 -47 -75 -136 -7 -10 -38 -61 -70 -113 l-57 -93 -20 25 c-12 14 -50
73 -86 131 -36 58 -80 130 -97 158 -18 29 -33 58 -33 63 0 6 34 32 75 58 41
27 79 55 86 63 6 8 16 14 21 14 5 0 64 -36 131 -81z"/>
<path d="M4195 5480 c-179 -28 -277 -59 -455 -142 -83 -38 -212 -118 -208
-128 2 -4 51 -58 110 -119 l107 -111 51 30 c114 67 307 133 440 151 50 7 149
9 240 6 158 -5 220 -16 370 -67 60 -20 209 -88 220 -101 3 -3 23 -16 45 -29
87 -51 212 -164 291 -262 101 -126 210 -330 239 -450 l7 -28 170 0 c158 0 170
1 163 18 -4 9 -9 26 -12 37 -29 121 -54 189 -116 318 -132 276 -368 533 -622
677 -67 39 -213 110 -224 110 -6 0 -25 6 -43 14 -18 8 -76 26 -128 40 -213 57
-438 70 -645 36z"/>
<path d="M900 3563 c0 -20 50 -185 75 -248 138 -347 412 -650 741 -819 39 -20
75 -36 81 -36 7 0 14 26 18 58 3 31 15 100 26 152 10 52 15 96 11 98 -39 13
-208 137 -278 204 -155 149 -274 332 -336 518 l-25 75 -157 3 c-86 1 -156 -1
-156 -5z"/>
<path d="M4991 2329 c-25 -11 -61 -24 -80 -29 -90 -22 -118 -29 -142 -34 -25
-5 -26 -9 -33 -93 -12 -170 -53 -315 -131 -468 -72 -140 -134 -226 -241 -332
-141 -139 -306 -243 -481 -301 l-88 -30 -3 -157 c-2 -147 -1 -157 15 -152 10
3 50 15 90 26 128 37 352 135 368 161 3 5 15 10 25 10 10 0 20 3 22 8 2 4 36
30 77 57 110 74 314 280 390 395 95 144 193 355 226 490 46 184 72 470 43 470
-7 0 -33 -10 -57 -21z"/>
</g>
</svg>
