<?xml version="1.0" standalone="no"?>
<!DOCTYPE svg PUBLIC "-//W3C//DTD SVG 20010904//EN"
 "http://www.w3.org/TR/2001/REC-SVG-20010904/DTD/svg10.dtd">
<svg version="1.0" xmlns="http://www.w3.org/2000/svg"
 width="688.000000pt" height="624.000000pt" viewBox="0 0 688.000000 624.000000"
 preserveAspectRatio="xMidYMid meet">

<g transform="translate(0.000000,624.000000) scale(0.100000,-0.100000)"
fill="#FFFFFF" stroke="none">
<path d="M3417 6008 c-12 -82 -17 -185 -17 -310 l0 -188 -27 0 c-113 -1 -531
-23 -678 -35 -429 -37 -811 -113 -989 -198 -240 -114 -212 -232 81 -342 274
-104 975 -195 1496 -195 l118 0 -3 -32 c-3 -32 -4 -33 -53 -35 -278 -14 -587
-115 -823 -270 -265 -174 -469 -402 -600 -673 -109 -226 -157 -402 -169 -622
l-6 -108 -564 0 c-515 0 -662 -6 -723 -27 -8 -3 30 -14 85 -24 88 -16 164 -18
651 -18 l551 -1 6 -97 c13 -241 99 -509 235 -738 122 -205 339 -429 542 -557
240 -152 501 -237 803 -263 l77 -7 0 -469 c0 -373 3 -489 15 -567 9 -53 17
-101 19 -107 1 -5 10 40 19 100 14 91 17 190 17 576 l0 467 83 7 c114 10 292
41 374 66 531 163 951 570 1123 1088 47 142 66 231 82 384 l12 117 541 0 c465
0 554 2 643 17 56 9 102 20 102 23 0 3 -37 11 -83 18 -57 8 -260 12 -644 12
l-560 0 -7 95 c-52 743 -577 1361 -1306 1536 -80 19 -210 37 -295 41 -48 3
-50 4 -53 34 l-3 31 233 6 c564 16 1059 83 1357 183 123 41 198 81 240 130 83
94 0 184 -249 267 -298 100 -733 155 -1422 183 l-158 6 -1 202 c0 204 -22 405
-44 413 -6 2 -18 -46 -28 -119z m478 -578 c412 -29 730 -93 906 -181 66 -33
119 -89 119 -126 0 -158 -528 -294 -1246 -319 l-184 -7 0 305 0 306 -41 4
c-22 2 -42 2 -45 -1 -2 -2 -4 -142 -4 -309 l0 -305 -176 6 c-600 23 -1063 116
-1202 241 -48 43 -58 75 -37 116 103 199 1040 332 1910 270z m-495 -909 l0
-109 -72 -7 c-102 -9 -256 -41 -344 -71 -539 -181 -931 -681 -970 -1239 l-7
-95 -108 0 -109 0 0 33 c1 63 29 247 54 346 75 296 215 541 435 762 193 193
400 320 654 403 142 47 314 81 430 85 l37 1 0 -109z m250 95 c331 -45 618
-171 878 -388 317 -266 544 -712 569 -1120 l6 -108 -111 0 c-100 0 -112 2
-112 18 0 50 -23 208 -41 285 -61 266 -184 483 -389 687 -242 241 -507 368
-863 411 l-97 12 0 109 0 108 28 0 c15 0 74 -7 132 -14z m-250 -267 c0 -28 -2
-29 -43 -29 -129 0 -370 -65 -521 -141 -427 -215 -694 -615 -741 -1111 -6 -67
-7 -68 -36 -68 -27 0 -29 3 -29 36 0 77 32 254 66 359 149 471 519 822 996
944 105 27 281 53 301 43 4 -2 7 -16 7 -33z m309 11 c80 -14 244 -68 331 -107
88 -40 220 -124 307 -195 291 -237 482 -618 505 -1008 3 -44 2 -45 -27 -45
l-30 0 -7 75 c-60 632 -516 1125 -1133 1225 -49 8 -107 15 -127 15 -35 0 -38
2 -38 28 0 16 2 31 5 33 6 7 133 -6 214 -21z m-312 -542 c-4 -370 -8 -393 -75
-523 -44 -86 -182 -229 -257 -265 -50 -25 -50 -25 -423 -28 -336 -3 -373 -2
-378 13 -4 9 -1 58 6 108 68 504 436 900 935 1008 44 9 106 17 138 18 l59 1
-5 -332z m263 316 c419 -79 766 -381 901 -785 34 -101 59 -230 59 -302 l0 -48
-372 3 -373 3 -50 25 c-70 34 -213 180 -252 255 -76 147 -77 154 -81 528 l-4
337 45 0 c25 0 82 -7 127 -16z m-152 -994 c98 -44 137 -142 92 -230 -71 -139
-261 -129 -316 17 -32 83 5 168 91 209 60 29 77 29 133 4z m-1498 -254 c0 -71
37 -264 69 -362 115 -352 386 -666 720 -834 155 -77 350 -131 529 -146 l82 -7
0 -108 0 -109 -42 0 c-24 0 -88 7 -143 15 -715 107 -1262 623 -1399 1319 -14
67 -27 156 -31 199 l-7 77 111 0 111 0 0 -44z m85 -13 c36 -321 142 -570 339
-795 154 -177 363 -313 600 -390 74 -23 309 -68 364 -68 14 0 17 -46 3 -54
-16 -11 -200 13 -300 39 -120 30 -279 96 -385 159 -384 228 -641 639 -681
1089 l-7 77 30 0 c30 0 31 -1 37 -57z m1003 29 c63 -33 163 -138 210 -219 23
-39 54 -110 68 -159 27 -87 28 -95 32 -412 l4 -323 -64 6 c-489 51 -875 356
-1028 812 -26 79 -60 250 -60 306 0 17 21 18 398 15 393 -3 397 -3 440 -26z
m1522 -11 c0 -120 -59 -325 -135 -470 -118 -223 -289 -388 -520 -504 -137 -68
-236 -96 -438 -122 l-49 -6 4 323 c4 296 6 329 27 396 44 149 132 284 231 357
86 63 87 64 503 64 l377 1 0 -39z m230 -10 c0 -56 -24 -201 -46 -281 -69 -245
-189 -449 -368 -625 -125 -123 -223 -193 -371 -265 -163 -80 -336 -129 -512
-145 l-73 -6 0 29 c0 33 4 34 125 48 139 15 305 64 429 126 398 198 671 567
741 1003 8 49 15 107 15 128 0 34 2 37 30 37 29 0 30 -1 30 -49z m247 -38
c-19 -298 -145 -625 -336 -877 -278 -367 -729 -608 -1198 -643 l-83 -6 0 110
0 110 80 7 c342 28 667 181 901 422 252 260 376 532 415 907 l5 57 111 0 111
0 -6 -87z"/>
<path d="M2652 3777 l-32 -33 32 -24 c106 -79 181 -130 185 -126 4 3 -118 177
-146 209 -4 4 -21 -8 -39 -26z"/>
<path d="M4110 3705 c-86 -116 -98 -141 -49 -104 19 14 69 52 112 84 l78 58
-27 29 c-15 15 -31 28 -35 28 -4 0 -39 -43 -79 -95z"/>
<path d="M2793 2327 c-23 -18 -72 -54 -108 -81 l-66 -49 30 -30 c25 -26 32
-28 45 -18 18 15 135 177 143 197 7 19 4 18 -44 -19z"/>
<path d="M4052 2318 c87 -120 133 -178 138 -178 3 0 18 13 33 28 l27 28 -22
21 c-39 34 -180 133 -190 133 -6 0 0 -15 14 -32z"/>
</g>
</svg>
