<?xml version="1.0" standalone="no"?>
<!DOCTYPE svg PUBLIC "-//W3C//DTD SVG 20010904//EN"
 "http://www.w3.org/TR/2001/REC-SVG-20010904/DTD/svg10.dtd">
<svg version="1.0" xmlns="http://www.w3.org/2000/svg"
 width="688.000000pt" height="624.000000pt" viewBox="0 0 688.000000 624.000000"
 preserveAspectRatio="xMidYMid meet">

<g transform="translate(0.000000,624.000000) scale(0.100000,-0.100000)"
fill="#ffffff" stroke="none">
<path d="M6138 3926 c-55 -42 -158 -160 -210 -240 -69 -106 -75 -193 -20 -270
l31 -42 -35 -68 c-56 -111 -42 -205 40 -285 l35 -34 -27 -51 c-24 -46 -27 -62
-27 -151 0 -89 3 -106 28 -156 15 -31 55 -87 88 -125 34 -38 73 -94 88 -124
24 -52 26 -64 25 -200 0 -123 -4 -154 -22 -204 -27 -73 -28 -102 -3 -116 80
-42 158 153 148 370 -7 162 -32 225 -129 326 -93 97 -111 134 -110 230 0 64
21 144 37 144 3 0 28 -11 55 -25 67 -34 170 -132 205 -197 26 -46 30 -63 30
-133 0 -49 -6 -93 -15 -113 -14 -31 -14 -35 5 -48 34 -25 58 -13 85 41 20 41
25 65 25 131 0 73 -3 87 -39 160 -60 122 -157 212 -316 296 -128 67 -161 155
-92 246 l17 22 70 -23 c134 -46 239 -118 269 -186 23 -50 53 -62 78 -31 35 44
10 130 -56 188 -35 30 -263 146 -313 158 -12 4 -39 24 -59 46 -33 37 -36 45
-31 84 5 45 29 78 189 252 66 71 78 101 54 137 -22 34 -45 31 -98 -9z"/>
<path d="M2612 3934 c-20 -14 -22 -24 -22 -98 l0 -83 -62 -7 c-185 -20 -316
-74 -344 -141 -33 -79 -2 -330 50 -407 38 -58 136 -96 286 -112 25 -3 46 -5
48 -5 1 -1 0 -11 -2 -23 -3 -13 -8 -40 -11 -60 -5 -33 -10 -38 -54 -53 -142
-47 -289 -203 -344 -364 -29 -83 -34 -256 -12 -416 9 -71 21 -140 26 -152 12
-32 54 -56 84 -49 36 9 41 44 16 116 -44 127 -52 338 -17 453 29 97 139 223
236 272 54 27 154 41 193 26 32 -12 62 -71 53 -105 -3 -12 -36 -61 -72 -110
-75 -99 -94 -152 -94 -267 0 -182 97 -301 287 -350 119 -30 239 2 278 74 18
33 18 36 2 61 -24 36 -64 34 -112 -4 -51 -41 -107 -41 -195 1 -84 39 -117 72
-135 133 -31 102 -13 180 69 304 62 93 82 163 71 246 -9 75 -36 114 -96 139
l-50 22 7 50 c3 27 7 51 8 52 0 1 48 7 106 13 116 14 141 23 189 72 58 58 94
148 106 261 13 120 -41 281 -103 306 -39 16 -137 31 -208 31 -61 0 -62 0 -68
31 -3 17 -6 51 -6 75 0 72 -54 106 -108 68z m298 -309 c15 -8 38 -27 49 -41
25 -31 46 -103 34 -114 -4 -4 -65 -5 -135 -3 l-128 6 0 82 c0 45 3 85 8 89 11
12 140 -2 172 -19z m-310 -76 c0 -55 -4 -81 -12 -84 -7 -2 -79 -5 -160 -8
l-148 -4 0 36 c0 29 7 44 33 68 17 16 41 33 52 37 31 12 219 44 228 39 4 -2 7
-40 7 -84z m373 -215 c12 -13 -34 -84 -65 -100 -17 -9 -66 -19 -110 -21 l-78
-6 0 44 c0 91 -3 89 129 89 65 0 120 -3 124 -6z m-387 -66 c-3 -34 -8 -63 -10
-66 -7 -6 -168 15 -198 27 -14 5 -39 26 -54 46 -23 30 -25 38 -13 46 8 5 74 9
148 9 l134 0 -7 -62z"/>
<path d="M4142 3930 c-19 -18 -22 -31 -22 -105 0 -102 -4 -115 -39 -115 -95 0
-365 -142 -401 -211 -17 -32 -8 -62 22 -73 23 -8 35 -3 95 42 84 62 201 118
266 128 l47 6 -6 -83 c-19 -284 -54 -555 -95 -749 -45 -214 -154 -469 -254
-593 -64 -80 -73 -122 -29 -133 44 -11 75 8 131 81 94 123 169 279 223 463 11
39 24 72 28 72 5 0 14 -17 21 -37 27 -78 129 -281 182 -363 85 -130 238 -290
279 -290 25 0 60 29 60 51 0 12 -39 58 -99 117 -146 143 -244 305 -310 512
-57 178 -72 447 -44 760 l18 195 50 -3 c104 -7 261 -49 440 -117 55 -21 74
-24 92 -16 31 14 32 65 1 85 -29 18 -220 94 -268 106 -19 5 -60 16 -90 24 -30
9 -90 21 -134 27 l-79 12 6 92 c5 87 4 94 -17 114 -28 26 -46 26 -74 1z"/>
<path d="M5482 3898 c-19 -19 -14 -63 8 -83 13 -12 40 -20 71 -22 76 -4 118
-28 141 -81 40 -90 3 -164 -117 -235 -99 -58 -159 -118 -200 -200 -42 -85 -46
-142 -12 -202 26 -46 66 -58 98 -29 23 21 24 47 3 79 -26 40 -4 109 62 189 30
36 58 66 63 66 5 0 19 -30 31 -66 17 -51 21 -81 18 -128 -7 -77 -31 -119 -102
-174 -144 -111 -205 -258 -194 -466 3 -62 7 -79 27 -100 28 -30 71 -34 95 -10
20 19 20 24 0 85 -24 73 -14 151 30 241 34 69 104 158 125 158 12 0 77 -98 97
-146 33 -79 -15 -234 -106 -339 -58 -67 -115 -189 -130 -278 -10 -54 -10 -96
-2 -170 11 -106 27 -137 67 -137 41 0 46 20 39 134 -11 176 19 270 133 411 97
121 136 236 114 342 -15 76 -53 155 -102 214 l-41 49 28 67 c24 59 28 82 28
168 0 67 -6 120 -18 158 -16 57 -16 60 1 73 10 7 21 14 24 14 3 0 16 22 29 50
61 130 6 285 -121 343 -77 36 -165 47 -187 25z"/>
<path d="M700 3788 c-183 -10 -202 -15 -213 -59 -3 -12 4 -30 17 -46 l23 -26
243 11 c134 6 248 8 253 5 13 -8 1 -173 -18 -248 -40 -152 -125 -266 -245
-328 -40 -20 -81 -37 -92 -37 -18 0 -20 4 -13 48 3 26 13 78 21 117 26 131 29
193 9 215 -23 25 -67 26 -89 1 -35 -39 -64 -570 -46 -871 12 -214 42 -394 75
-459 29 -57 105 -132 164 -161 96 -48 307 -66 424 -35 86 22 170 69 226 125
63 63 92 113 126 214 35 106 44 256 46 839 l2 450 -23 19 c-27 22 -49 23 -78
2 l-23 -16 7 -255 7 -256 -79 5 c-103 6 -161 36 -269 139 l-79 77 22 63 c21
61 48 213 54 309 l3 45 125 -2 c69 -1 181 -7 248 -13 108 -10 127 -9 148 5 30
19 32 65 4 90 -42 38 -548 55 -980 33z m338 -668 c45 -61 196 -154 291 -180
24 -6 71 -15 105 -18 l61 -7 3 -40 c2 -22 1 -85 -3 -140 l-7 -100 -181 0
c-100 0 -290 -2 -422 -5 l-240 -5 0 150 c0 142 1 150 20 153 22 4 182 79 204
96 7 6 41 37 75 68 33 32 64 58 67 58 3 0 15 -13 27 -30z m454 -650 c-10 -184
-72 -326 -172 -390 -72 -46 -146 -63 -285 -64 -110 -1 -125 1 -175 25 -73 34
-120 76 -153 138 -23 41 -30 73 -41 178 -7 70 -12 131 -10 135 10 17 402 36
694 34 l145 -1 -3 -55z"/>
<path d="M4458 3416 c-72 -19 -140 -73 -183 -145 -17 -29 -17 -88 0 -105 36
-36 63 -13 121 102 10 20 19 14 37 -22 24 -51 47 -147 57 -239 l10 -81 -60
-62 c-62 -64 -72 -91 -44 -118 30 -31 61 -19 139 55 167 159 253 359 215 498
-29 109 -148 156 -292 117z m167 -106 c27 -22 39 -83 26 -126 -18 -57 -53
-134 -62 -134 -5 0 -11 17 -15 38 -7 44 -33 163 -38 177 -1 6 -8 21 -13 35 -8
20 -7 26 6 31 20 7 77 -5 96 -21z"/>
<path d="M3887 3382 c-12 -13 -17 -36 -17 -73 0 -141 -43 -338 -119 -544 -45
-123 -49 -154 -23 -178 39 -35 70 -11 97 75 7 24 34 101 59 172 49 136 71 247
82 413 6 86 4 106 -10 128 -19 30 -46 32 -69 7z"/>
<path d="M2931 2594 c0 -11 3 -14 6 -6 3 7 2 16 -1 19 -3 4 -6 -2 -5 -13z"/>
<path d="M2920 2453 c0 -5 5 -15 10 -23 8 -12 10 -11 10 8 0 12 -4 22 -10 22
-5 0 -10 -3 -10 -7z"/>
</g>
</svg>
