<?xml version="1.0" standalone="no"?>
<!DOCTYPE svg PUBLIC "-//W3C//DTD SVG 20010904//EN"
 "http://www.w3.org/TR/2001/REC-SVG-20010904/DTD/svg10.dtd">
<svg version="1.0" xmlns="http://www.w3.org/2000/svg"
 width="688.000000pt" height="624.000000pt" viewBox="0 0 688.000000 624.000000"
 preserveAspectRatio="xMidYMid meet">

<g transform="translate(0.000000,624.000000) scale(0.100000,-0.100000)"
fill="#ffffff" stroke="none">
<path d="M2876 5353 c-301 -401 -585 -773 -631 -828 -46 -55 -82 -101 -81
-103 2 -1 26 13 54 32 107 72 146 81 352 81 155 1 197 5 260 22 124 34 291 59
458 69 67 3 125 10 127 15 5 7 202 686 232 799 8 30 23 84 34 119 10 35 19 68
19 75 0 6 -41 -52 -92 -129 -51 -77 -196 -298 -324 -491 l-231 -351 -49 7
c-27 4 -88 11 -136 15 -49 4 -88 11 -88 16 0 4 25 61 56 126 54 113 256 541
334 708 85 182 224 473 241 508 11 20 18 37 16 37 -2 0 -250 -327 -551 -727z"/>
<path d="M3895 4944 c-87 -177 -161 -327 -163 -333 -2 -5 9 -13 25 -17 15 -3
70 -19 122 -35 52 -16 95 -28 96 -27 5 6 86 708 83 720 -2 7 -75 -132 -163
-308z"/>
<path d="M4380 4734 c-6 -16 -35 -92 -65 -170 -30 -77 -55 -145 -55 -152 0 -6
15 -18 33 -26 17 -8 46 -24 63 -35 l31 -21 6 212 c4 116 5 214 2 216 -2 3 -9
-8 -15 -24z"/>
<path d="M3404 4609 c-8 -14 8 -24 71 -45 28 -9 79 -30 114 -45 35 -16 67 -27
71 -24 11 7 52 96 47 101 -7 8 -169 24 -234 24 -35 0 -65 -5 -69 -11z"/>
<path d="M2651 4499 c-75 -26 -253 -112 -336 -162 -160 -95 -382 -284 -476
-403 -24 -31 -60 -76 -80 -101 -20 -24 -49 -77 -64 -116 -66 -170 -160 -331
-231 -397 l-45 -42 12 -67 c19 -107 7 -281 -24 -365 -41 -111 -125 -215 -214
-264 -13 -8 -6 -55 52 -343 37 -184 67 -345 68 -358 2 -22 -8 -28 -88 -60
l-90 -36 4 -149 c3 -146 -18 -346 -40 -370 -6 -6 -17 -1 -30 13 -20 21 -22 21
-40 5 -10 -9 -19 -30 -19 -46 0 -16 -4 -27 -9 -24 -9 6 -21 -121 -21 -229 l0
-70 58 -23 c32 -12 63 -22 69 -22 7 0 15 17 19 38 13 80 35 161 69 262 l35
105 -6 -79 -5 -79 41 34 c23 19 54 43 68 54 l27 20 -25 -40 c-13 -22 -41 -66
-61 -98 -37 -57 -69 -162 -69 -226 0 -34 -4 -32 114 -51 37 -6 71 -8 74 -5 9
9 35 205 36 275 1 36 -3 85 -8 110 -8 40 -7 43 7 31 22 -17 48 -88 56 -152 l7
-54 36 70 c21 39 37 63 38 54 0 -29 -41 -151 -61 -178 -14 -19 -19 -46 -21
-101 l-3 -75 60 -7 c49 -7 62 -5 72 8 19 27 56 176 61 252 2 40 8 75 12 77 25
15 20 -273 -5 -337 -6 -14 4 -17 72 -23 43 -3 87 -7 98 -8 40 -4 44 108 8 310
-4 26 1 37 32 70 32 33 35 35 28 13 -12 -38 -8 -73 13 -118 22 -47 34 -53 34
-18 0 17 15 37 47 65 26 22 48 39 50 37 1 -1 -13 -31 -32 -67 -29 -55 -100
-287 -91 -296 2 -2 47 -4 101 -6 l98 -2 13 49 c7 27 16 77 19 112 6 52 4 63
-10 71 -11 7 -16 19 -13 39 l3 29 50 -46 50 -47 47 47 c25 25 60 66 78 91 31
44 32 45 29 15 -1 -16 1 -42 6 -57 4 -16 4 -40 0 -55 l-7 -28 -10 28 c-5 15
-14 27 -18 27 -21 0 -120 -217 -120 -262 0 -21 19 -22 144 -11 l78 6 -8 91
c-12 130 -10 147 16 168 28 22 97 23 125 1 19 -15 19 -15 -6 -9 -15 3 -34 -1
-47 -10 -18 -13 -22 -24 -21 -72 0 -31 6 -77 12 -102 12 -44 13 -45 51 -42 39
3 146 39 146 49 0 3 -17 39 -37 79 -30 61 -37 88 -41 152 -3 69 -1 81 20 112
43 63 132 95 275 101 29 2 58 6 64 9 12 8 -16 41 -75 84 -55 41 -79 101 -78
196 0 117 45 242 113 317 87 96 130 225 136 419 l5 141 132 6 c161 7 248 28
393 97 111 53 206 81 258 77 25 -2 30 3 38 31 12 38 79 102 135 127 131 60
192 96 245 145 49 46 59 62 64 98 l6 42 86 0 c196 0 322 -67 536 -286 115
-117 155 -182 162 -264 5 -51 9 -60 22 -55 9 4 46 14 82 23 l67 17 11 70 c19
128 20 162 10 281 -42 497 -307 983 -709 1303 -85 68 -227 167 -255 177 -13 5
-15 -20 -15 -187 l0 -194 89 -95 c63 -67 91 -91 95 -80 4 13 43 175 62 259 8
35 19 15 33 -59 57 -308 80 -409 103 -450 14 -25 37 -65 51 -90 125 -221 164
-295 158 -298 -5 -1 -68 13 -142 32 -74 19 -215 56 -314 81 -99 25 -187 51
-197 58 -9 7 -60 77 -113 156 -136 203 -206 289 -380 470 -281 292 -646 509
-978 581 -110 24 -136 24 -206 -1z m-544 -1454 c135 -67 271 -244 387 -505
137 -311 129 -564 -20 -626 -81 -34 -255 -1 -412 78 -157 78 -267 221 -294
380 -10 64 -9 69 21 141 41 100 61 187 61 272 0 74 -21 179 -44 223 -14 26
-13 28 22 50 34 21 45 23 130 18 75 -3 105 -10 149 -31z m-763 -824 c31 -107
56 -200 54 -208 -6 -27 -46 16 -67 71 -27 74 -68 358 -47 335 2 -2 29 -91 60
-198z"/>
<path d="M3966 4478 c-3 -24 -8 -70 -12 -103 l-6 -60 49 -36 c26 -20 72 -55
100 -78 l53 -43 10 29 c6 15 14 37 19 48 20 44 61 154 61 164 0 6 -15 17 -32
25 -159 69 -223 96 -229 96 -4 0 -9 -19 -13 -42z"/>
<path d="M4051 2645 c-17 -19 -39 -64 -51 -101 -28 -92 -27 -94 18 -83 63 14
165 11 190 -7 19 -13 28 -14 53 -4 16 7 49 10 75 7 98 -11 187 -97 296 -289
73 -129 152 -221 168 -198 22 32 -1 127 -73 299 -20 47 -33 89 -30 94 7 12 70
-50 98 -98 33 -56 82 -207 96 -293 14 -82 10 -112 -46 -369 -37 -165 -65 -265
-90 -313 -8 -16 -11 -30 -6 -30 20 0 116 119 144 178 26 55 31 80 38 195 12
185 28 291 50 334 31 60 20 112 -31 158 -66 59 -160 256 -160 336 0 30 -7 47
-26 66 -25 25 -29 25 -107 19 -120 -10 -171 -7 -281 15 -106 21 -162 45 -214
90 -44 39 -73 37 -111 -6z"/>
<path d="M5255 2403 c-11 -3 -35 -16 -52 -30 -27 -19 -33 -31 -33 -61 0 -21 9
-55 20 -76 12 -25 17 -49 13 -67 -8 -41 14 -177 43 -261 31 -93 31 -177 0
-299 -39 -154 -107 -282 -209 -395 l-45 -50 103 -17 c57 -9 134 -28 170 -43
l67 -26 73 36 c112 55 212 172 248 291 4 11 15 72 26 136 11 63 34 154 51 202
33 91 112 215 155 243 32 21 31 38 -7 104 -66 116 -213 226 -376 283 -85 29
-199 43 -247 30z"/>
<path d="M3814 2321 c-30 -18 -64 -57 -64 -73 0 -4 24 -15 54 -24 51 -16 56
-16 80 0 33 21 34 59 1 91 -29 30 -31 30 -71 6z"/>
<path d="M3500 2299 c-46 -26 -75 -70 -105 -156 -31 -86 -32 -123 -2 -150 20
-19 60 -43 70 -43 2 0 7 26 11 58 3 31 14 79 22 106 18 53 77 158 100 177 8 6
14 15 14 20 0 17 -75 9 -110 -12z"/>
<path d="M3950 2223 c1 -36 1 -37 16 -18 17 22 15 46 -3 53 -9 2 -13 -8 -13
-35z"/>
<path d="M3924 2137 c-3 -8 -4 -36 -2 -63 4 -67 27 -69 93 -10 43 38 48 47 39
63 -15 24 -121 32 -130 10z"/>
<path d="M3676 2074 c-4 -9 -4 -19 -2 -22 10 -9 36 8 36 23 0 20 -26 19 -34
-1z"/>
<path d="M3773 2025 c-35 -11 -63 -23 -63 -26 0 -4 13 -12 30 -19 25 -10 34
-10 55 4 22 14 52 55 43 60 -2 1 -31 -8 -65 -19z"/>
<path d="M3985 1977 c-154 -48 -361 -89 -461 -92 -88 -2 -106 -6 -141 -28 -81
-51 -182 -196 -199 -284 -6 -29 -4 -33 15 -33 31 0 95 35 141 76 45 40 66 40
114 -5 28 -26 86 -133 86 -160 0 -48 118 -178 205 -225 56 -31 151 -64 160
-55 18 19 154 789 144 816 -2 5 -28 2 -64 -10z"/>
<path d="M4232 1965 c-16 -34 -15 -55 3 -125 14 -54 14 -62 -5 -123 -11 -36
-35 -87 -53 -114 -44 -63 -67 -131 -74 -218 l-6 -70 -72 -75 c-80 -84 -110
-124 -101 -139 21 -33 226 -81 344 -81 94 1 145 12 236 52 78 34 172 42 215
19 27 -15 28 -25 -5 149 -9 47 -17 141 -18 210 -2 143 -10 166 -96 269 -73 87
-307 271 -345 271 -7 0 -17 -11 -23 -25z"/>
<path d="M5006 1625 c-30 -181 -58 -247 -132 -311 -80 -68 -128 -184 -76 -184
29 0 101 41 127 72 39 46 71 116 83 183 18 96 24 197 14 240 l-9 40 -7 -40z"/>
<path d="M3315 1253 c-41 -10 -34 -20 35 -47 56 -22 79 -38 113 -78 41 -48
101 -88 132 -88 62 0 182 -109 225 -204 73 -161 273 -351 454 -431 115 -51
192 -67 341 -71 148 -4 221 6 355 47 62 19 84 32 144 87 139 128 274 210 381
232 l57 12 -7 36 c-24 127 -167 243 -360 291 -150 37 -241 43 -352 21 -286
-55 -678 -80 -795 -52 -26 7 -111 43 -190 81 -164 79 -301 134 -373 149 -68
15 -136 21 -160 15z"/>
<path d="M3035 1172 c-87 -117 -149 -240 -182 -364 -21 -75 -23 -236 -4 -290
l13 -38 114 0 c96 0 121 -3 155 -21 61 -30 178 -58 250 -57 86 0 137 -22 196
-86 39 -43 63 -58 130 -84 97 -38 236 -62 353 -62 76 0 91 3 135 29 28 16 76
56 107 88 l58 58 -106 54 c-205 104 -378 256 -487 431 -63 101 -128 152 -221
172 -36 8 -60 18 -63 28 -12 41 -49 103 -73 120 -41 29 -97 35 -150 15 -121
-44 -139 -48 -165 -31 -16 10 -25 26 -25 41 0 32 -10 31 -35 -3z"/>
</g>
</svg>
